<svg width="42" height="42" viewBox="0 0 42 42" fill="none" xmlns="http://www.w3.org/2000/svg">
<circle cx="21" cy="21" r="21" fill="#F2F4F8"/>
<path d="M23.6378 28.4029L23.5076 29.1415L23.6378 28.4029ZM25.8622 28.4029L25.7321 27.6643L25.8622 28.4029ZM28.3911 26.1305L27.6752 25.9069L28.3911 26.1305ZM28.5 25.4195H27.75H28.5ZM21 25.4195L20.25 25.4195L21 25.4195ZM21.1089 26.1305L20.3929 26.354L20.3929 26.354L21.1089 26.1305ZM26.3824 23.5V24.25H26.3825L26.3824 23.5ZM28.3217 26.353L29.0376 26.5765V26.5765L28.3217 26.353ZM21.1783 26.353L21.8943 26.1294L21.8943 26.1294L21.1783 26.353ZM23.1176 23.5L23.1175 24.25H23.1176V23.5ZM13.5971 16.1378L12.8585 16.0076L13.5971 16.1378ZM15.8695 20.8911L16.0931 20.1752H16.0931L15.8695 20.8911ZM16.5805 21V20.25V21ZM16.5805 13.5V12.75V13.5ZM15.8695 13.6089L15.646 12.8929L15.646 12.8929L15.8695 13.6089ZM18.5 18.8824H17.75V18.8825L18.5 18.8824ZM15.647 20.8217L15.4235 21.5376H15.4235L15.647 20.8217ZM15.647 13.6783L15.8706 14.3943L15.8706 14.3943L15.647 13.6783ZM18.5 15.6176L17.75 15.6175V15.6176L18.5 15.6176ZM20.3929 26.354L20.4624 26.5765L21.8943 26.1294L21.8248 25.9069L20.3929 26.354ZM29.0376 26.5765L29.1071 26.354L27.6752 25.9069L27.6057 26.1295L29.0376 26.5765ZM23.5076 29.1415C24.3283 29.2862 25.1717 29.2862 25.9924 29.1415L25.7321 27.6643C25.0836 27.7786 24.4164 27.7786 23.7679 27.6643L23.5076 29.1415ZM29.1071 26.354C29.2017 26.0509 29.25 25.7363 29.25 25.4195H27.75C27.75 25.5835 27.725 25.7474 27.6752 25.9069L29.1071 26.354ZM20.25 25.4195C20.25 25.7363 20.2983 26.0509 20.3929 26.354L21.8248 25.9069C21.775 25.7474 21.75 25.5835 21.75 25.4195L20.25 25.4195ZM29.25 25.4195C29.25 23.8776 27.8952 22.75 26.3824 22.75L26.3825 24.25C27.2087 24.25 27.75 24.8412 27.75 25.4195H29.25ZM27.6057 26.1295C27.3708 26.882 26.6678 27.4994 25.7321 27.6643L25.9924 29.1415C27.4182 28.8903 28.6174 27.9223 29.0376 26.5765L27.6057 26.1295ZM20.4624 26.5765C20.8826 27.9223 22.0818 28.8903 23.5076 29.1415L23.7679 27.6643C22.8322 27.4994 22.1292 26.882 21.8943 26.1294L20.4624 26.5765ZM21.75 25.4195C21.75 24.8412 22.2913 24.25 23.1175 24.25L23.1176 22.75C21.6048 22.75 20.25 23.8776 20.25 25.4195L21.75 25.4195ZM26.3824 22.75H23.1176V24.25H26.3824V22.75ZM15.646 12.8929L15.4235 12.9624L15.8706 14.3943L16.0931 14.3248L15.646 12.8929ZM15.4235 21.5376L15.646 21.6071L16.0931 20.1752L15.8705 20.1057L15.4235 21.5376ZM12.8585 16.0076C12.7138 16.8283 12.7138 17.6717 12.8585 18.4924L14.3357 18.2321C14.2214 17.5836 14.2214 16.9164 14.3357 16.2679L12.8585 16.0076ZM15.646 21.6071C15.9491 21.7017 16.2637 21.75 16.5805 21.75L16.5805 20.25C16.4165 20.25 16.2526 20.225 16.0931 20.1752L15.646 21.6071ZM16.5805 12.75C16.2637 12.75 15.9491 12.7983 15.646 12.8929L16.0931 14.3248C16.2526 14.275 16.4165 14.25 16.5805 14.25L16.5805 12.75ZM16.5805 21.75C18.1224 21.75 19.25 20.3952 19.25 18.8824L17.75 18.8825C17.75 19.7087 17.1588 20.25 16.5805 20.25L16.5805 21.75ZM15.8705 20.1057C15.118 19.8708 14.5006 19.1678 14.3357 18.2321L12.8585 18.4924C13.1097 19.9182 14.0777 21.1174 15.4235 21.5376L15.8705 20.1057ZM15.4235 12.9624C14.0777 13.3826 13.1097 14.5818 12.8585 16.0076L14.3357 16.2679C14.5006 15.3322 15.118 14.6292 15.8706 14.3943L15.4235 12.9624ZM16.5805 14.25C17.1588 14.25 17.75 14.7913 17.75 15.6175L19.25 15.6176C19.25 14.1048 18.1224 12.75 16.5805 12.75L16.5805 14.25ZM19.25 18.8824L19.25 15.6176L17.75 15.6176L17.75 18.8824H19.25ZM12.8596 18.4989C13.8617 23.907 18.093 28.1383 23.5011 29.1404L23.7744 27.6655C18.9769 26.7766 15.2234 23.0231 14.3345 18.2256L12.8596 18.4989Z" fill="#23408F"/>
</svg>
