<svg width="42" height="42" viewBox="0 0 42 42" fill="none" xmlns="http://www.w3.org/2000/svg">
<circle cx="21" cy="21" r="21" fill="#F2F4F8"/>
<path d="M21.2617 27.2418L20.5632 26.9686L21.2617 27.2418ZM14.1491 22.7815L14.88 22.6135L14.1491 22.7815ZM14.1463 18.6887L13.4153 18.5207L14.1463 18.6887ZM27.8729 18.8728L28.6038 18.7048V18.7048L27.8729 18.8728ZM27.8729 22.5851L27.1419 22.4171L27.8729 22.5851ZM18.7631 28.3528L18.4683 29.0424L18.4683 29.0424L18.7631 28.3528ZM19.0744 13.7262L19.249 14.4556V14.4556L19.0744 13.7262ZM22.9024 13.7262L22.7278 14.4556L22.9024 13.7262ZM18.6646 28.3107L18.9595 27.621H18.9595L18.6646 28.3107ZM23.22 13.8022L23.3946 13.0728L23.22 13.8022ZM27.7988 18.5507L27.0679 18.7187L27.0679 18.7187L27.7988 18.5507ZM18.8886 13.7707L18.714 13.0413V13.0413L18.8886 13.7707ZM19.0632 14.5001L19.249 14.4556L18.8998 12.9968L18.714 13.0413L19.0632 14.5001ZM22.7278 14.4556L23.0454 14.5316L23.3946 13.0728L23.077 12.9968L22.7278 14.4556ZM19.0579 27.6631L18.9595 27.621L18.3698 29.0003L18.4683 29.0424L19.0579 27.6631ZM27.0679 18.7187L27.1419 19.0409L28.6038 18.7048L28.5298 18.3827L27.0679 18.7187ZM22.8099 26.0223H21.9254V27.5223H22.8099V26.0223ZM21.9254 26.0223C21.3052 26.0223 20.7782 26.4189 20.5632 26.9686L21.9602 27.515C21.9622 27.5097 21.9637 27.5103 21.9597 27.5131C21.9553 27.5162 21.9434 27.5223 21.9254 27.5223V26.0223ZM14.88 22.6135C14.597 21.3821 14.5946 20.086 14.8772 18.8567L13.4153 18.5207C13.0815 19.9732 13.0847 21.499 13.4181 22.9495L14.88 22.6135ZM27.1419 19.0409C27.3969 20.1502 27.3969 21.3077 27.1419 22.4171L28.6038 22.7531C28.9096 21.4226 28.9096 20.0353 28.6038 18.7048L27.1419 19.0409ZM18.4683 29.0424C19.8648 29.6394 21.4168 28.9042 21.9602 27.515L20.5632 26.9686C20.3043 27.6305 19.6166 27.902 19.0579 27.6631L18.4683 29.0424ZM19.249 14.4556C20.3941 14.1815 21.5827 14.1815 22.7278 14.4556L23.077 12.9968C21.7024 12.6677 20.2745 12.6677 18.8998 12.9968L19.249 14.4556ZM18.9595 27.621C16.9332 26.7548 15.4019 24.884 14.88 22.6135L13.4181 22.9495C14.0412 25.6601 15.8779 27.9349 18.3698 29.0003L18.9595 27.621ZM27.1419 22.4171C26.6502 24.5564 24.8426 26.0223 22.8099 26.0223V27.5223C25.5885 27.5223 27.9663 25.5268 28.6038 22.7531L27.1419 22.4171ZM23.0454 14.5316C25.0136 15.0027 26.5838 16.6127 27.0679 18.7187L28.5298 18.3827C27.9254 15.7532 25.9478 13.684 23.3946 13.0728L23.0454 14.5316ZM18.714 13.0413C16.0801 13.6718 14.0392 15.8067 13.4153 18.5207L14.8772 18.8567C15.3807 16.6662 17.0142 14.9905 19.0632 14.5001L18.714 13.0413Z" fill="#23408F"/>
<path d="M18.2471 17.7982C17.8329 17.7982 17.4971 18.134 17.4971 18.5482C17.4971 18.9624 17.8329 19.2982 18.2471 19.2982V17.7982ZM23.2735 19.2982C23.6877 19.2982 24.0235 18.9624 24.0235 18.5482C24.0235 18.134 23.6877 17.7982 23.2735 17.7982V19.2982ZM18.2471 20.6784C17.8329 20.6784 17.4971 21.0141 17.4971 21.4284C17.4971 21.8426 17.8329 22.1784 18.2471 22.1784V20.6784ZM21.4457 22.1784C21.8599 22.1784 22.1957 21.8426 22.1957 21.4284C22.1957 21.0141 21.8599 20.6784 21.4457 20.6784V22.1784ZM18.2471 19.2982H23.2735V17.7982H18.2471V19.2982ZM18.2471 22.1784H21.4457V20.6784H18.2471V22.1784Z" fill="#23408F"/>
</svg>
